<svg width="16" height="16" viewBox="0 0 16 16" fill="none" xmlns="http://www.w3.org/2000/svg">
<g clip-path="url(#clip0_3_362)">
<path d="M11.5556 6.22228C11.5556 3.76672 8.96944 1.77783 5.77778 1.77783C2.58611 1.77783 0 3.76672 0 6.22228C0 7.17505 0.391667 8.05283 1.05556 8.77783C0.683333 9.61672 0.0694444 10.2834 0.0611111 10.2917C0 10.3556 -0.0166667 10.4501 0.0194444 10.5334C0.0555556 10.6167 0.133333 10.6667 0.222222 10.6667C1.23889 10.6667 2.08056 10.3251 2.68611 9.97228C3.58056 10.4084 4.63889 10.6667 5.77778 10.6667C8.96944 10.6667 11.5556 8.67783 11.5556 6.22228ZM14.9444 12.3334C15.6083 11.6112 16 10.7306 16 9.77783C16 7.9195 14.5139 6.32783 12.4083 5.66394C12.4333 5.84728 12.4444 6.03339 12.4444 6.22228C12.4444 9.16394 9.45278 11.5556 5.77778 11.5556C5.47778 11.5556 5.18611 11.5334 4.89722 11.5028C5.77222 13.1001 7.82778 14.2223 10.2222 14.2223C11.3611 14.2223 12.4194 13.9667 13.3139 13.5278C13.9194 13.8806 14.7611 14.2223 15.7778 14.2223C15.8667 14.2223 15.9472 14.1695 15.9806 14.0889C16.0167 14.0084 16 13.9139 15.9389 13.8473C15.9306 13.8389 15.3167 13.1751 14.9444 12.3334Z" fill="white"/>
</g>
<defs>
<clipPath id="clip0_3_362">
<rect width="16" height="16" fill="white"/>
</clipPath>
</defs>
</svg>
