<svg width="180" height="30" viewBox="0 0 180 30" fill="none" xmlns="http://www.w3.org/2000/svg">
<path d="M3.4492 8.86363L0.842246 8.4024C1.04278 7.01203 1.43048 5.79211 2.00535 4.74264C2.58021 3.69318 3.29879 2.81751 4.16109 2.11564C5.02339 1.41377 6.0127 0.885694 7.12901 0.531416C8.24532 0.177138 9.44519 0 10.7286 0C12.0655 0 13.2721 0.190508 14.3483 0.571524C15.4245 0.95254 16.3436 1.48062 17.1056 2.15575C17.8676 2.83088 18.4525 3.62299 18.8603 4.53208C19.268 5.44117 19.4719 6.4238 19.4719 7.47995C19.4719 8.40241 19.3683 9.21457 19.1611 9.91644C18.9539 10.6183 18.6564 11.2299 18.2687 11.7513C17.881 12.2727 17.3997 12.7139 16.8249 13.0749C16.25 13.4358 15.6016 13.7366 14.8797 13.9773C16.6176 14.5254 17.9144 15.361 18.7701 16.484C19.6257 17.607 20.0535 19.0174 20.0535 20.7152C20.0535 22.1591 19.7861 23.4358 19.2513 24.5455C18.7166 25.6551 17.9946 26.5876 17.0856 27.3429C16.1765 28.0983 15.1237 28.6698 13.9271 29.0575C12.7306 29.4452 11.4639 29.639 10.127 29.639C8.66978 29.639 7.39973 29.4719 6.31684 29.1377C5.23396 28.8035 4.29144 28.3088 3.4893 27.6537C2.68717 26.9987 2.00535 26.1965 1.44385 25.2473C0.882352 24.2981 0.40107 23.2019 0 21.9586L2.18583 21.0562C2.76069 20.8155 3.29879 20.752 3.80013 20.8656C4.30147 20.9793 4.66578 21.25 4.89305 21.6778C5.13369 22.1457 5.39773 22.607 5.68516 23.0615C5.9726 23.516 6.31685 23.9205 6.71792 24.2747C7.11899 24.629 7.59024 24.9164 8.13168 25.137C8.67313 25.3576 9.31818 25.4679 10.0668 25.4679C10.9091 25.4679 11.6444 25.3309 12.2727 25.0568C12.9011 24.7828 13.4258 24.4251 13.8469 23.984C14.2681 23.5428 14.5822 23.0515 14.7894 22.51C14.9967 21.9686 15.1003 21.4238 15.1003 20.8757C15.1003 20.1805 15.0267 19.5488 14.8797 18.9806C14.7326 18.4124 14.4251 17.9278 13.9572 17.5267C13.4893 17.1257 12.8175 16.8115 11.9418 16.5842C11.0662 16.357 9.89305 16.2433 8.42246 16.2433V12.7139C9.63904 12.7005 10.6484 12.5869 11.4505 12.373C12.2527 12.1591 12.891 11.8616 13.3656 11.4806C13.8402 11.0996 14.1711 10.6417 14.3583 10.107C14.5455 9.57219 14.639 8.98396 14.639 8.34225C14.639 6.97861 14.258 5.94251 13.496 5.23396C12.734 4.5254 11.7179 4.17112 10.4479 4.17112C9.85963 4.17112 9.31818 4.25468 8.82353 4.42179C8.32888 4.5889 7.88436 4.82286 7.48997 5.12366C7.09559 5.42447 6.76471 5.7754 6.49733 6.17647C6.22995 6.57754 6.02941 7.01871 5.89572 7.5C5.66845 8.11497 5.37099 8.52272 5.00334 8.72326C4.6357 8.92379 4.11765 8.97059 3.4492 8.86363ZM44.1979 14.8195C44.1979 17.3463 43.9271 19.5421 43.3857 21.4071C42.8443 23.2721 42.0956 24.8128 41.1397 26.0294C40.1838 27.246 39.0541 28.1517 37.7507 28.7467C36.4472 29.3416 35.0401 29.639 33.5294 29.639C32.0187 29.639 30.6183 29.3416 29.3282 28.7467C28.0381 28.1517 26.9184 27.246 25.9693 26.0294C25.0201 24.8128 24.2781 23.2721 23.7433 21.4071C23.2086 19.5421 22.9412 17.3463 22.9412 14.8195C22.9412 12.2794 23.2086 10.0802 23.7433 8.22192C24.2781 6.36363 25.0201 4.8262 25.9693 3.60962C26.9184 2.39305 28.0381 1.4873 29.3282 0.892379C30.6183 0.297459 32.0187 0 33.5294 0C35.0401 0 36.4472 0.297459 37.7507 0.892379C39.0541 1.4873 40.1838 2.39305 41.1397 3.60962C42.0956 4.8262 42.8443 6.36363 43.3857 8.22192C43.9271 10.0802 44.1979 12.2794 44.1979 14.8195ZM39.0842 14.8195C39.0842 12.7206 38.9305 10.9826 38.623 9.60562C38.3155 8.22861 37.9044 7.13235 37.3897 6.31684C36.875 5.50133 36.2834 4.92981 35.615 4.60227C34.9465 4.27473 34.2513 4.11096 33.5294 4.11096C32.8209 4.11096 32.1357 4.27473 31.4739 4.60227C30.8122 4.92981 30.2273 5.50133 29.7192 6.31684C29.2112 7.13235 28.8068 8.22861 28.506 9.60562C28.2052 10.9826 28.0548 12.7206 28.0548 14.8195C28.0548 16.9184 28.2052 18.6564 28.506 20.0334C28.8068 21.4104 29.2112 22.5067 29.7192 23.3222C30.2273 24.1377 30.8122 24.7092 31.4739 25.0368C32.1357 25.3643 32.8209 25.5281 33.5294 25.5281C34.2513 25.5281 34.9465 25.3643 35.615 25.0368C36.2834 24.7092 36.875 24.1377 37.3897 23.3222C37.9044 22.5067 38.3155 21.4104 38.623 20.0334C38.9305 18.6564 39.0842 16.9184 39.0842 14.8195ZM67.4599 14.8195C67.4599 17.3463 67.1892 19.5421 66.6477 21.4071C66.1063 23.2721 65.3576 24.8128 64.4017 26.0294C63.4459 27.246 62.3162 28.1517 61.0127 28.7467C59.7092 29.3416 58.3021 29.639 56.7914 29.639C55.2807 29.639 53.8804 29.3416 52.5902 28.7467C51.3001 28.1517 50.1805 27.246 49.2313 26.0294C48.2821 24.8128 47.5401 23.2721 47.0054 21.4071C46.4706 19.5421 46.2032 17.3463 46.2032 14.8195C46.2032 12.2794 46.4706 10.0802 47.0054 8.22192C47.5401 6.36363 48.2821 4.8262 49.2313 3.60962C50.1805 2.39305 51.3001 1.4873 52.5902 0.892379C53.8804 0.297459 55.2807 0 56.7914 0C58.3021 0 59.7092 0.297459 61.0127 0.892379C62.3162 1.4873 63.4459 2.39305 64.4017 3.60962C65.3576 4.8262 66.1063 6.36363 66.6477 8.22192C67.1892 10.0802 67.4599 12.2794 67.4599 14.8195ZM62.3463 14.8195C62.3463 12.7206 62.1925 10.9826 61.885 9.60562C61.5775 8.22861 61.1664 7.13235 60.6517 6.31684C60.137 5.50133 59.5455 4.92981 58.877 4.60227C58.2086 4.27473 57.5134 4.11096 56.7914 4.11096C56.0829 4.11096 55.3977 4.27473 54.736 4.60227C54.0742 4.92981 53.4893 5.50133 52.9813 6.31684C52.4733 7.13235 52.0689 8.22861 51.7681 9.60562C51.4673 10.9826 51.3168 12.7206 51.3168 14.8195C51.3168 16.9184 51.4673 18.6564 51.7681 20.0334C52.0689 21.4104 52.4733 22.5067 52.9813 23.3222C53.4893 24.1377 54.0742 24.7092 54.736 25.0368C55.3977 25.3643 56.0829 25.5281 56.7914 25.5281C57.5134 25.5281 58.2086 25.3643 58.877 25.0368C59.5455 24.7092 60.137 24.1377 60.6517 23.3222C61.1664 22.5067 61.5775 21.4104 61.885 20.0334C62.1925 18.6564 62.3463 16.9184 62.3463 14.8195ZM99.3048 22.6805L96.6778 25.2674L89.8797 18.4693L83.0214 25.3075L80.3944 22.7206L87.2527 15.8422L80.7152 9.30481L83.3222 6.69786L89.8596 13.2353L96.3569 6.73797L99.004 9.34492L92.4866 15.8623L99.3048 22.6805ZM123.449 24.7059H130.889C131.424 24.7059 131.848 24.8563 132.162 25.1571C132.477 25.4579 132.634 25.8556 132.634 26.3503V29.3182H112.741V27.6738C112.741 27.3396 112.811 26.9886 112.951 26.621C113.092 26.2533 113.316 25.9225 113.623 25.6283L122.426 16.8048C123.162 16.0562 123.82 15.3409 124.402 14.6591C124.983 13.9773 125.468 13.3021 125.856 12.6337C126.243 11.9652 126.541 11.2868 126.748 10.5983C126.955 9.90976 127.059 9.18449 127.059 8.42246C127.059 7.72727 126.959 7.11564 126.758 6.58757C126.557 6.05949 126.273 5.61497 125.906 5.25401C125.538 4.89305 125.097 4.62233 124.582 4.44185C124.068 4.26136 123.489 4.17112 122.848 4.17112C122.259 4.17112 121.715 4.25468 121.213 4.42179C120.712 4.5889 120.267 4.82286 119.88 5.12366C119.492 5.42447 119.164 5.7754 118.897 6.17647C118.63 6.57754 118.429 7.01871 118.295 7.5C118.068 8.11497 117.774 8.52272 117.413 8.72326C117.052 8.92379 116.531 8.97059 115.849 8.86363L113.242 8.4024C113.443 7.01203 113.83 5.79211 114.405 4.74264C114.98 3.69318 115.699 2.81751 116.561 2.11564C117.423 1.41377 118.412 0.885694 119.529 0.531416C120.645 0.177138 121.845 0 123.128 0C124.465 0 125.689 0.197189 126.798 0.591574C127.908 0.985959 128.857 1.54412 129.646 2.26605C130.434 2.98797 131.049 3.85695 131.491 4.873C131.932 5.88904 132.152 7.01872 132.152 8.26203C132.152 9.33155 131.995 10.3209 131.681 11.2299C131.367 12.139 130.946 13.008 130.418 13.8369C129.89 14.6658 129.271 15.4679 128.563 16.2433C127.854 17.0187 127.112 17.8075 126.337 18.6096L119.799 25.2874C120.428 25.1003 121.053 24.9566 121.674 24.8563C122.296 24.756 122.888 24.7059 123.449 24.7059ZM156.738 14.8195C156.738 17.3463 156.467 19.5421 155.926 21.4071C155.384 23.2721 154.636 24.8128 153.68 26.0294C152.724 27.246 151.594 28.1517 150.291 28.7467C148.987 29.3416 147.58 29.639 146.07 29.639C144.559 29.639 143.158 29.3416 141.868 28.7467C140.578 28.1517 139.459 27.246 138.509 26.0294C137.56 24.8128 136.818 23.2721 136.283 21.4071C135.749 19.5421 135.481 17.3463 135.481 14.8195C135.481 12.2794 135.749 10.0802 136.283 8.22192C136.818 6.36363 137.56 4.8262 138.509 3.60962C139.459 2.39305 140.578 1.4873 141.868 0.892379C143.158 0.297459 144.559 0 146.07 0C147.58 0 148.987 0.297459 150.291 0.892379C151.594 1.4873 152.724 2.39305 153.68 3.60962C154.636 4.8262 155.384 6.36363 155.926 8.22192C156.467 10.0802 156.738 12.2794 156.738 14.8195ZM151.624 14.8195C151.624 12.7206 151.471 10.9826 151.163 9.60562C150.856 8.22861 150.445 7.13235 149.93 6.31684C149.415 5.50133 148.824 4.92981 148.155 4.60227C147.487 4.27473 146.791 4.11096 146.07 4.11096C145.361 4.11096 144.676 4.27473 144.014 4.60227C143.352 4.92981 142.767 5.50133 142.259 6.31684C141.751 7.13235 141.347 8.22861 141.046 9.60562C140.745 10.9826 140.595 12.7206 140.595 14.8195C140.595 16.9184 140.745 18.6564 141.046 20.0334C141.347 21.4104 141.751 22.5067 142.259 23.3222C142.767 24.1377 143.352 24.7092 144.014 25.0368C144.676 25.3643 145.361 25.5281 146.07 25.5281C146.791 25.5281 147.487 25.3643 148.155 25.0368C148.824 24.7092 149.415 24.1377 149.93 23.3222C150.445 22.5067 150.856 21.4104 151.163 20.0334C151.471 18.6564 151.624 16.9184 151.624 14.8195ZM180 14.8195C180 17.3463 179.729 19.5421 179.188 21.4071C178.646 23.2721 177.898 24.8128 176.942 26.0294C175.986 27.246 174.856 28.1517 173.553 28.7467C172.249 29.3416 170.842 29.639 169.332 29.639C167.821 29.639 166.42 29.3416 165.13 28.7467C163.84 28.1517 162.721 27.246 161.771 26.0294C160.822 24.8128 160.08 23.2721 159.545 21.4071C159.011 19.5421 158.743 17.3463 158.743 14.8195C158.743 12.2794 159.011 10.0802 159.545 8.22192C160.08 6.36363 160.822 4.8262 161.771 3.60962C162.721 2.39305 163.84 1.4873 165.13 0.892379C166.42 0.297459 167.821 0 169.332 0C170.842 0 172.249 0.297459 173.553 0.892379C174.856 1.4873 175.986 2.39305 176.942 3.60962C177.898 4.8262 178.646 6.36363 179.188 8.22192C179.729 10.0802 180 12.2794 180 14.8195ZM174.886 14.8195C174.886 12.7206 174.733 10.9826 174.425 9.60562C174.118 8.22861 173.707 7.13235 173.192 6.31684C172.677 5.50133 172.086 4.92981 171.417 4.60227C170.749 4.27473 170.053 4.11096 169.332 4.11096C168.623 4.11096 167.938 4.27473 167.276 4.60227C166.614 4.92981 166.029 5.50133 165.521 6.31684C165.013 7.13235 164.609 8.22861 164.308 9.60562C164.007 10.9826 163.857 12.7206 163.857 14.8195C163.857 16.9184 164.007 18.6564 164.308 20.0334C164.609 21.4104 165.013 22.5067 165.521 23.3222C166.029 24.1377 166.614 24.7092 167.276 25.0368C167.938 25.3643 168.623 25.5281 169.332 25.5281C170.053 25.5281 170.749 25.3643 171.417 25.0368C172.086 24.7092 172.677 24.1377 173.192 23.3222C173.707 22.5067 174.118 21.4104 174.425 20.0334C174.733 18.6564 174.886 16.9184 174.886 14.8195Z" fill="#999999"/>
</svg>
