<svg width="36" height="36" viewBox="0 0 36 36" fill="none" xmlns="http://www.w3.org/2000/svg">
<path d="M29.25 3.375V32.625C29.25 34.489 27.739 36 25.875 36H10.125C8.26102 36 6.75 34.489 6.75 32.625V3.375C6.75 1.51102 8.26102 0 10.125 0H25.875C27.739 0 29.25 1.51102 29.25 3.375ZM36 7.45312V8.29688C36 8.40876 35.9556 8.51607 35.8764 8.59519C35.7973 8.6743 35.69 8.71875 35.5781 8.71875H34.3125V9.14062C34.3125 9.25251 34.2681 9.35982 34.1889 9.43894C34.1098 9.51805 34.0025 9.5625 33.8906 9.5625H30.9375V6.1875H33.8906C34.0025 6.1875 34.1098 6.23195 34.1889 6.31106C34.2681 6.39018 34.3125 6.49749 34.3125 6.60938V7.03125H35.5781C35.69 7.03125 35.7973 7.0757 35.8764 7.15481C35.9556 7.23393 36 7.34124 36 7.45312ZM36 14.2031V15.0469C36 15.1588 35.9556 15.2661 35.8764 15.3452C35.7973 15.4243 35.69 15.4688 35.5781 15.4688H34.3125V15.8906C34.3125 16.0025 34.2681 16.1098 34.1889 16.1889C34.1098 16.2681 34.0025 16.3125 33.8906 16.3125H30.9375V12.9375H33.8906C34.0025 12.9375 34.1098 12.9819 34.1889 13.0611C34.2681 13.1402 34.3125 13.2475 34.3125 13.3594V13.7812H35.5781C35.69 13.7812 35.7973 13.8257 35.8764 13.9048C35.9556 13.9839 36 14.0912 36 14.2031ZM36 20.9531V21.7969C36 21.9088 35.9556 22.0161 35.8764 22.0952C35.7973 22.1743 35.69 22.2188 35.5781 22.2188H34.3125V22.6406C34.3125 22.7525 34.2681 22.8598 34.1889 22.9389C34.1098 23.0181 34.0025 23.0625 33.8906 23.0625H30.9375V19.6875H33.8906C34.0025 19.6875 34.1098 19.7319 34.1889 19.8111C34.2681 19.8902 34.3125 19.9975 34.3125 20.1094V20.5312H35.5781C35.69 20.5312 35.7973 20.5757 35.8764 20.6548C35.9556 20.7339 36 20.8412 36 20.9531ZM36 27.7031V28.5469C36 28.6588 35.9556 28.7661 35.8764 28.8452C35.7973 28.9243 35.69 28.9688 35.5781 28.9688H34.3125V29.3906C34.3125 29.5025 34.2681 29.6098 34.1889 29.6889C34.1098 29.7681 34.0025 29.8125 33.8906 29.8125H30.9375V26.4375H33.8906C34.0025 26.4375 34.1098 26.4819 34.1889 26.5611C34.2681 26.6402 34.3125 26.7475 34.3125 26.8594V27.2812H35.5781C35.69 27.2812 35.7973 27.3257 35.8764 27.4048C35.9556 27.4839 36 27.5912 36 27.7031ZM2.10938 26.4375H5.0625V29.8125H2.10938C1.99749 29.8125 1.89018 29.7681 1.81106 29.6889C1.73195 29.6098 1.6875 29.5025 1.6875 29.3906V28.9688H0.421875C0.309987 28.9688 0.202681 28.9243 0.123564 28.8452C0.0444474 28.7661 0 28.6588 0 28.5469L0 27.7031C0 27.5912 0.0444474 27.4839 0.123564 27.4048C0.202681 27.3257 0.309987 27.2812 0.421875 27.2812H1.6875V26.8594C1.6875 26.7475 1.73195 26.6402 1.81106 26.5611C1.89018 26.4819 1.99749 26.4375 2.10938 26.4375ZM2.10938 19.6875H5.0625V23.0625H2.10938C1.99749 23.0625 1.89018 23.0181 1.81106 22.9389C1.73195 22.8598 1.6875 22.7525 1.6875 22.6406V22.2188H0.421875C0.309987 22.2188 0.202681 22.1743 0.123564 22.0952C0.0444474 22.0161 0 21.9088 0 21.7969L0 20.9531C0 20.8412 0.0444474 20.7339 0.123564 20.6548C0.202681 20.5757 0.309987 20.5312 0.421875 20.5312H1.6875V20.1094C1.6875 19.9975 1.73195 19.8902 1.81106 19.8111C1.89018 19.7319 1.99749 19.6875 2.10938 19.6875ZM2.10938 12.9375H5.0625V16.3125H2.10938C1.99749 16.3125 1.89018 16.2681 1.81106 16.1889C1.73195 16.1098 1.6875 16.0025 1.6875 15.8906V15.4688H0.421875C0.309987 15.4688 0.202681 15.4243 0.123564 15.3452C0.0444474 15.2661 0 15.1588 0 15.0469L0 14.2031C0 14.0912 0.0444474 13.9839 0.123564 13.9048C0.202681 13.8257 0.309987 13.7812 0.421875 13.7812H1.6875V13.3594C1.6875 13.2475 1.73195 13.1402 1.81106 13.0611C1.89018 12.9819 1.99749 12.9375 2.10938 12.9375ZM2.10938 6.1875H5.0625V9.5625H2.10938C1.99749 9.5625 1.89018 9.51805 1.81106 9.43894C1.73195 9.35982 1.6875 9.25251 1.6875 9.14062V8.71875H0.421875C0.309987 8.71875 0.202681 8.6743 0.123564 8.59519C0.0444474 8.51607 0 8.40876 0 8.29688L0 7.45312C0 7.34124 0.0444474 7.23393 0.123564 7.15481C0.202681 7.0757 0.309987 7.03125 0.421875 7.03125H1.6875V6.60938C1.6875 6.49749 1.73195 6.39018 1.81106 6.31106C1.89018 6.23195 1.99749 6.1875 2.10938 6.1875Z" fill="#2563EB"/>
</svg>
