<svg width="18" height="18" viewBox="0 0 18 18" fill="none" xmlns="http://www.w3.org/2000/svg">
<path d="M10.4062 13.4974H7.59375C7.12617 13.4974 6.75 13.1212 6.75 12.6536V6.74736H3.6668C3.04102 6.74736 2.72812 5.9915 3.17109 5.54853L8.51836 0.197754C8.78203 -0.065918 9.21445 -0.065918 9.47813 0.197754L14.8289 5.54853C15.2719 5.9915 14.959 6.74736 14.3332 6.74736H11.25V12.6536C11.25 13.1212 10.8738 13.4974 10.4062 13.4974ZM18 13.2161V17.1536C18 17.6212 17.6238 17.9974 17.1562 17.9974H0.84375C0.376172 17.9974 0 17.6212 0 17.1536V13.2161C0 12.7485 0.376172 12.3724 0.84375 12.3724H5.625V12.6536C5.625 13.7399 6.50742 14.6224 7.59375 14.6224H10.4062C11.4926 14.6224 12.375 13.7399 12.375 12.6536V12.3724H17.1562C17.6238 12.3724 18 12.7485 18 13.2161ZM13.6406 16.3099C13.6406 15.9231 13.3242 15.6067 12.9375 15.6067C12.5508 15.6067 12.2344 15.9231 12.2344 16.3099C12.2344 16.6966 12.5508 17.013 12.9375 17.013C13.3242 17.013 13.6406 16.6966 13.6406 16.3099ZM15.8906 16.3099C15.8906 15.9231 15.5742 15.6067 15.1875 15.6067C14.8008 15.6067 14.4844 15.9231 14.4844 16.3099C14.4844 16.6966 14.8008 17.013 15.1875 17.013C15.5742 17.013 15.8906 16.6966 15.8906 16.3099Z" fill="#2563EB"/>
</svg>
