<svg width="16" height="16" viewBox="0 0 16 16" fill="none" xmlns="http://www.w3.org/2000/svg">
<g clip-path="url(#clip0_3_162)">
<path d="M13.0583 7.31394C13.0583 7.31394 13.2694 8.34728 13.3167 8.56394H12.3889C12.4806 8.31672 12.8333 7.35561 12.8333 7.35561C12.8278 7.36394 12.925 7.10283 12.9806 6.94172L13.0583 7.31394ZM16 3.11117V12.8889C16 13.6251 15.4028 14.2223 14.6667 14.2223H1.33333C0.597222 14.2223 0 13.6251 0 12.8889V3.11117C0 2.37505 0.597222 1.77783 1.33333 1.77783H14.6667C15.4028 1.77783 16 2.37505 16 3.11117ZM4.23611 10.0889L5.99167 5.77783H4.81111L3.71944 8.72228L3.6 8.12505L3.21111 6.14172C3.14722 5.86672 2.95 5.78894 2.70556 5.77783H0.908333L0.888889 5.86394C1.32778 5.97505 1.71944 6.13617 2.06111 6.33894L3.05556 10.0889H4.23611ZM6.85833 10.0945L7.55833 5.77783H6.44167L5.74444 10.0945H6.85833ZM10.7444 8.68339C10.75 8.19172 10.45 7.81672 9.80833 7.50839C9.41667 7.31117 9.17778 7.17783 9.17778 6.97505C9.18333 6.79172 9.38056 6.60283 9.81944 6.60283C10.1833 6.5945 10.45 6.68061 10.65 6.76672L10.75 6.81394L10.9028 5.88061C10.6833 5.7945 10.3333 5.69728 9.90278 5.69728C8.8 5.69728 8.025 6.28617 8.01944 7.12505C8.01111 7.7445 8.575 8.08894 8.99722 8.29728C9.42778 8.50839 9.575 8.64728 9.575 8.83339C9.56944 9.12228 9.225 9.25561 8.90556 9.25561C8.46111 9.25561 8.22222 9.18617 7.85833 9.02505L7.71111 8.95561L7.55556 9.92505C7.81667 10.0445 8.3 10.1501 8.8 10.1556C9.97222 10.1584 10.7361 9.57783 10.7444 8.68339ZM14.6667 10.0945L13.7667 5.77783H12.9028C12.6361 5.77783 12.4333 5.85561 12.3194 6.13617L10.6611 10.0945H11.8333C11.8333 10.0945 12.025 9.56117 12.0667 9.44728H13.5C13.5333 9.60005 13.6333 10.0945 13.6333 10.0945H14.6667Z" fill="white"/>
</g>
<defs>
<clipPath id="clip0_3_162">
<rect width="16" height="16" fill="white"/>
</clipPath>
</defs>
</svg>
