<svg width="37" height="37" viewBox="0 0 37 37" fill="none" xmlns="http://www.w3.org/2000/svg">
<path d="M36.2124 28.5927L27.7509 20.1312C26.0817 18.4621 23.5888 18.1369 21.58 19.1268L13.8773 11.4241V6.93682L4.62816 0L0.00361287 4.62455L6.94044 13.8736H11.4277L19.1305 21.5764C18.1477 23.5852 18.4657 26.0781 20.1349 27.7473L28.5963 36.2088C29.6513 37.2638 31.3566 37.2638 32.4044 36.2088L36.2124 32.4007C37.2601 31.3458 37.2601 29.6405 36.2124 28.5927ZM23.9718 16.2582C26.0167 16.2582 27.9388 17.053 29.384 18.4982L30.7858 19.9C31.9275 19.4014 33.0113 18.7077 33.9507 17.7684C36.6315 15.0876 37.5419 11.3157 36.6893 7.89064C36.5303 7.24031 35.7138 7.01631 35.2369 7.49321L29.8609 12.8693L24.9545 12.0527L24.138 7.14637L29.514 1.77034C29.9909 1.29343 29.7597 0.476907 29.1021 0.310712C25.6771 -0.534713 21.9052 0.375745 19.2316 3.04931C17.1723 5.10868 16.204 7.8256 16.2546 10.5353L22.187 16.4677C22.7723 16.3304 23.3793 16.2582 23.9718 16.2582ZM16.4641 22.1834L12.3671 18.0863L1.35485 29.1058C-0.451616 30.9122 -0.451616 33.8387 1.35485 35.6452C3.16131 37.4516 6.08779 37.4516 7.89425 35.6452L16.8254 26.714C16.2762 25.2761 16.1101 23.708 16.4641 22.1834ZM4.62816 34.1061C3.67435 34.1061 2.89396 33.3257 2.89396 32.3718C2.89396 31.4108 3.66712 30.6376 4.62816 30.6376C5.5892 30.6376 6.36237 31.4108 6.36237 32.3718C6.36237 33.3257 5.5892 34.1061 4.62816 34.1061Z" fill="#2563EB"/>
</svg>
