<svg width="36" height="36" viewBox="0 0 36 36" fill="none" xmlns="http://www.w3.org/2000/svg">
<path d="M20.25 9.5625V0H6.1875C5.25234 0 4.5 0.752344 4.5 1.6875V34.3125C4.5 35.2477 5.25234 36 6.1875 36H29.8125C30.7477 36 31.5 35.2477 31.5 34.3125V11.25H21.9375C21.0094 11.25 20.25 10.4906 20.25 9.5625ZM24.75 26.1562C24.75 26.6203 24.3703 27 23.9062 27H12.0938C11.6297 27 11.25 26.6203 11.25 26.1562V25.5938C11.25 25.1297 11.6297 24.75 12.0938 24.75H23.9062C24.3703 24.75 24.75 25.1297 24.75 25.5938V26.1562ZM24.75 21.6562C24.75 22.1203 24.3703 22.5 23.9062 22.5H12.0938C11.6297 22.5 11.25 22.1203 11.25 21.6562V21.0938C11.25 20.6297 11.6297 20.25 12.0938 20.25H23.9062C24.3703 20.25 24.75 20.6297 24.75 21.0938V21.6562ZM24.75 16.5938V17.1562C24.75 17.6203 24.3703 18 23.9062 18H12.0938C11.6297 18 11.25 17.6203 11.25 17.1562V16.5938C11.25 16.1297 11.6297 15.75 12.0938 15.75H23.9062C24.3703 15.75 24.75 16.1297 24.75 16.5938ZM31.5 8.57109V9H22.5V0H22.9289C23.3789 0 23.8078 0.175781 24.1242 0.492188L31.0078 7.38281C31.3242 7.69922 31.5 8.12813 31.5 8.57109Z" fill="#2563EB"/>
</svg>
