<svg width="16" height="16" viewBox="0 0 16 16" fill="none" xmlns="http://www.w3.org/2000/svg">
<path d="M5.48123 9.24691C5.37186 9.84691 4.93748 12.6438 4.80936 13.4344C4.79998 13.4907 4.77811 13.5125 4.71561 13.5125H2.38436C2.14686 13.5125 1.97498 13.3063 2.00623 13.0782L3.83748 1.45628C3.88436 1.15628 4.15311 0.928156 4.46248 0.928156C9.22186 0.928156 9.62186 0.812531 10.8375 1.28441C12.7156 2.01253 12.8875 3.76878 12.2125 5.66878C11.5406 7.62503 9.94686 8.46566 7.83436 8.49066C6.47811 8.51253 5.66248 8.27191 5.48123 9.24691ZM13.1594 4.75003C13.1031 4.70941 13.0812 4.69378 13.0656 4.79066C13.0031 5.14691 12.9062 5.49378 12.7906 5.84066C11.5437 9.39691 8.08748 9.08753 6.39998 9.08753C6.20936 9.08753 6.08436 9.19066 6.05936 9.38128C5.35311 13.7688 5.21248 14.6844 5.21248 14.6844C5.18123 14.9063 5.32186 15.0875 5.54373 15.0875H7.52811C7.79686 15.0875 8.01873 14.8907 8.07186 14.6219C8.09373 14.4532 8.03748 14.8125 8.52186 11.7688C8.66561 11.0813 8.96873 11.1532 9.43748 11.1532C11.6562 11.1532 13.3875 10.2532 13.9031 7.64378C14.1062 6.55628 14.0469 5.41253 13.1594 4.75003Z" fill="white"/>
</svg>
